<?xml version="1.0" encoding="UTF-8" standalone="yes"?>
<!DOCTYPE svg PUBLIC "-//W3C//DTD SVG 1.0//EN" "http://www.w3.org/TR/2001/REC-SVG-20010904/DTD/svg10.dtd">
<svg width="1" height="1" xmlns="http://www.w3.org/2000/svg" xmlns:svg="http://www.w3.org/2000/svg" xmlns:xlink="http://www.w3.org/1999/xlink" xmlns:slic3r="http://slic3r.org/namespaces/slic3r">
  <!-- 
  Generated using Slic3r 1.2.9
  http://slic3r.org/
   -->
  <g id="layer0" slic3r:z="5e-08">
    <polygon slic3r:type="contour" points="0.5049,0.00024 0.549007,0.002406 0.553861,0.003126 0.597544,0.009606 0.602303,0.010798 0.645142,0.02153 0.649762,0.023183 0.691341,0.038059 0.695777,0.040157 0.735698,0.059038 0.739906,0.061561 0.777785,0.084264 0.781725,0.087186 0.817196,0.113494 0.820831,0.116789 0.853553,0.146447 0.883209,0.179167 0.886504,0.182802 0.912812,0.218273 0.915734,0.222214 0.938437,0.260092 0.940961,0.264301 0.959841,0.304221 0.96194,0.308658 0.976815,0.350236 0.978468,0.354856 0.9892,0.397695 0.990393,0.402454 0.996872,0.446137 0.997592,0.450991 0.999758,0.495098 1,0.499999 0.997831,0.544107 0.997592,0.549008 0.991112,0.59269 0.990393,0.597544 0.979661,0.640382 0.978469,0.645141 0.963592,0.686722 0.961939,0.691342 0.943057,0.731262 0.940961,0.735697 0.918257,0.773575 0.915735,0.777784 0.889427,0.813255 0.886504,0.817196 0.856848,0.849916 0.853553,0.853553 0.849916,0.856848 0.817196,0.886504 0.813255,0.889427 0.777784,0.915735 0.773575,0.918257 0.735697,0.940961 0.731262,0.943057 0.691342,0.961939 0.686722,0.963592 0.645141,0.978469 0.640382,0.979661 0.597544,0.990393 0.59269,0.991112 0.549008,0.997592 0.544107,0.997831 0.499999,1 0.495098,0.999758 0.450991,0.997592 0.446137,0.996872 0.402454,0.990393 0.397695,0.9892 0.354856,0.978468 0.350236,0.976815 0.308658,0.96194 0.304221,0.959841 0.264301,0.940961 0.260092,0.938437 0.222214,0.915734 0.218273,0.912812 0.182802,0.886504 0.179167,0.883209 0.146447,0.853553 0.116789,0.820831 0.113494,0.817196 0.087186,0.781725 0.084264,0.777785 0.061561,0.739906 0.059038,0.735698 0.040157,0.695777 0.038059,0.691341 0.023183,0.649762 0.02153,0.645142 0.010798,0.602303 0.009606,0.597544 0.003126,0.553861 0.002406,0.549007 0.00024,0.5049 0,0.499999 0.002167,0.455891 0.002407,0.45099 0.008886,0.407308 0.009605,0.402454 0.020337,0.359616 0.02153,0.354856 0.036407,0.313277 0.038059,0.308658 0.056941,0.268736 0.059038,0.264301 0.081742,0.226422 0.084263,0.222215 0.110571,0.186743 0.113494,0.182803 0.143151,0.150081 0.146447,0.146447 0.150081,0.143151 0.182803,0.113494 0.186743,0.110571 0.222215,0.084263 0.226422,0.081742 0.264301,0.059038 0.268736,0.056941 0.308658,0.038059 0.313277,0.036407 0.354856,0.02153 0.359616,0.020337 0.402454,0.009605 0.407308,0.008886 0.45099,0.002407 0.455891,0.002167 0.499999,0" style="fill: white" />
  </g>
  <g id="layer1" slic3r:z="2e-07">
    <polygon slic3r:type="contour" points="0.519603,0.000963 0.549008,0.002407 0.568423,0.005287 0.597545,0.009606 0.616582,0.014375 0.645142,0.02153 0.663622,0.028142 0.691341,0.038059 0.709084,0.046451 0.735697,0.059037 0.752531,0.069128 0.777785,0.084264 0.793548,0.095955 0.817195,0.113493 0.831739,0.126675 0.853552,0.146446 0.873323,0.168259 0.886505,0.182803 0.904043,0.20645 0.915734,0.222214 0.930869,0.247466 0.940961,0.264302 0.953547,0.290914 0.961939,0.308657 0.971856,0.336376 0.978469,0.354857 0.985623,0.383416 0.990392,0.402453 0.994711,0.431575 0.997592,0.450991 0.999035,0.480395 0.999999,0.499999 0.998555,0.529404 0.997592,0.549008 0.993272,0.578129 0.990392,0.597545 0.983238,0.626103 0.978469,0.645142 0.968552,0.672861 0.961939,0.691342 0.949351,0.717955 0.94096,0.735698 0.925825,0.760949 0.915734,0.777785 0.898197,0.801431 0.886504,0.817196 0.866732,0.83901 0.853553,0.853552 0.83901,0.866732 0.817195,0.886505 0.801431,0.898197 0.777785,0.915734 0.760949,0.925825 0.735697,0.940961 0.717955,0.949351 0.691342,0.961939 0.672861,0.968552 0.645142,0.978469 0.626103,0.983238 0.597545,0.990392 0.578129,0.993272 0.549008,0.997592 0.529404,0.998555 0.499999,0.999999 0.480395,0.999035 0.450991,0.997592 0.431575,0.994711 0.402453,0.990392 0.383416,0.985623 0.354856,0.978468 0.336376,0.971856 0.308657,0.96194 0.290914,0.953547 0.264302,0.940961 0.247466,0.930869 0.222214,0.915734 0.20645,0.904043 0.182803,0.886505 0.168259,0.873323 0.146446,0.853552 0.126675,0.831739 0.113493,0.817195 0.095955,0.793548 0.084264,0.777785 0.069128,0.752531 0.059037,0.735697 0.04645,0.709083 0.03806,0.691342 0.028142,0.663621 0.02153,0.645142 0.014375,0.616582 0.009606,0.597545 0.005287,0.568423 0.002407,0.549008 0.000963,0.519603 0,0.5 0.001443,0.470594 0.002407,0.45099 0.006726,0.421869 0.009606,0.402453 0.01676,0.373895 0.021529,0.354857 0.031448,0.327137 0.038059,0.308658 0.050647,0.282043 0.059038,0.264301 0.074174,0.239048 0.084263,0.222215 0.101802,0.198566 0.113493,0.182803 0.133266,0.160988 0.146447,0.146447 0.160988,0.133266 0.182803,0.113493 0.198566,0.101802 0.222215,0.084263 0.239048,0.074174 0.264301,0.059038 0.282044,0.050646 0.308657,0.03806 0.327137,0.031448 0.354857,0.021529 0.373895,0.01676 0.402453,0.009606 0.421869,0.006726 0.45099,0.002407 0.470594,0.001443 0.5,0" style="fill: white" />
  </g>
  <g id="layer2" slic3r:z="4e-07">
    <polygon slic3r:type="contour" points="0.539206,0.001926 0.549007,0.002407 0.587837,0.008167 0.597545,0.009606 0.635621,0.019144 0.645141,0.02153 0.682102,0.034754 0.691342,0.03806 0.726826,0.054843 0.735698,0.059038 0.769366,0.079218 0.777784,0.084263 0.809314,0.107648 0.817195,0.113493 0.846281,0.139856 0.853553,0.146447 0.860143,0.153718 0.886505,0.182803 0.89235,0.190684 0.915734,0.222214 0.920779,0.230631 0.940961,0.264302 0.945156,0.273173 0.96194,0.308658 0.965245,0.317897 0.978469,0.354857 0.980853,0.364376 0.990393,0.402453 0.991831,0.412161 0.997592,0.450991 0.998073,0.460793 1,0.499999 0.999518,0.5098 0.997592,0.549008 0.996152,0.558714 0.990392,0.597545 0.988008,0.607063 0.978468,0.645142 0.975163,0.654381 0.961939,0.691342 0.957743,0.700213 0.94096,0.735698 0.935915,0.744114 0.915735,0.777784 0.909889,0.785666 0.886505,0.817196 0.879913,0.824468 0.853553,0.853553 0.824467,0.879914 0.817196,0.886505 0.785666,0.909889 0.777784,0.915735 0.744114,0.935915 0.735698,0.940961 0.700213,0.957743 0.691342,0.961939 0.654381,0.975163 0.645142,0.978468 0.607063,0.988008 0.597545,0.990392 0.558714,0.996152 0.549008,0.997592 0.5098,0.999518 0.499999,1 0.460793,0.998073 0.450991,0.997592 0.412161,0.991831 0.402453,0.990393 0.364376,0.980853 0.354857,0.978469 0.317897,0.965245 0.308658,0.96194 0.273173,0.945156 0.264302,0.940961 0.230631,0.920779 0.222214,0.915734 0.190684,0.89235 0.182803,0.886505 0.153718,0.860143 0.146447,0.853553 0.139856,0.846281 0.113493,0.817195 0.107648,0.809314 0.084263,0.777784 0.079218,0.769366 0.059038,0.735698 0.054843,0.726826 0.03806,0.691342 0.034754,0.682102 0.02153,0.645141 0.019144,0.635621 0.009606,0.597545 0.008167,0.587837 0.002407,0.549007 0.001926,0.539206 0,0.499999 0.00048,0.490198 0.002407,0.45099 0.003846,0.441284 0.009606,0.402453 0.01199,0.392935 0.02153,0.354856 0.024835,0.345617 0.038059,0.308658 0.042255,0.299785 0.059037,0.264302 0.064084,0.255883 0.084264,0.222214 0.090109,0.214332 0.113494,0.182803 0.120084,0.175531 0.146447,0.146447 0.175531,0.120084 0.182803,0.113494 0.214332,0.090109 0.222214,0.084264 0.255883,0.064084 0.264302,0.059037 0.299785,0.042255 0.308658,0.038059 0.345617,0.024835 0.354856,0.02153 0.392935,0.01199 0.402453,0.009606 0.441284,0.003846 0.45099,0.002407 0.490198,0.00048 0.499999,0" style="fill: white" />
  </g>
</svg>
